<?xml version="1.0" standalone="no"?>
<!DOCTYPE svg PUBLIC "-//W3C//DTD SVG 20010904//EN"
 "http://www.w3.org/TR/2001/REC-SVG-20010904/DTD/svg10.dtd">
<svg version="1.0" xmlns="http://www.w3.org/2000/svg"
 width="1599.000000pt" height="1599.000000pt" viewBox="0 0 1599.000000 1599.000000"
 preserveAspectRatio="xMidYMid meet">
<metadata>
Created by potrace 1.11, written by Peter Selinger 2001-2013
</metadata>
<g transform="translate(0.000000,1599.000000) scale(0.100000,-0.100000)"
fill="#000000" stroke="none">
<path d="M7585 15411 c-11 -10 -65 -16 -280 -30 -82 -5 -188 -16 -235 -25 -47
-8 -114 -18 -150 -21 -36 -3 -112 -15 -170 -25 -58 -10 -132 -23 -165 -29
-243 -41 -746 -164 -910 -222 -16 -6 -57 -19 -90 -30 -33 -10 -78 -25 -100
-33 -22 -8 -47 -15 -55 -16 -8 0 -33 -9 -55 -20 -22 -11 -45 -19 -51 -20 -6 0
-31 -8 -55 -18 -24 -10 -78 -31 -119 -47 -110 -40 -161 -61 -355 -146 -108
-47 -462 -218 -525 -254 -14 -8 -79 -44 -145 -81 -146 -81 -490 -294 -601
-372 -45 -31 -110 -77 -145 -101 -107 -74 -365 -277 -534 -420 -376 -320 -788
-749 -1096 -1141 -179 -229 -215 -280 -465 -660 -50 -76 -137 -221 -209 -350
-42 -74 -80 -142 -85 -150 -10 -17 -204 -407 -226 -455 -14 -31 -101 -235
-134 -315 -72 -175 -146 -384 -216 -610 -14 -47 -33 -104 -41 -128 -8 -24 -21
-69 -28 -100 -8 -31 -26 -100 -40 -152 -15 -52 -35 -133 -45 -180 -10 -47 -30
-139 -44 -205 -15 -66 -33 -160 -41 -210 -8 -49 -21 -126 -29 -170 -20 -105
-53 -368 -61 -475 -3 -47 -13 -159 -21 -250 -20 -219 -15 -891 9 -1160 19
-215 50 -459 77 -615 10 -60 22 -130 25 -155 6 -44 23 -124 66 -320 49 -223
127 -509 200 -733 22 -65 39 -122 39 -128 0 -5 8 -29 18 -52 10 -23 31 -76 46
-117 15 -41 36 -94 47 -118 10 -23 19 -47 19 -54 0 -10 33 -93 70 -173 10 -22
30 -69 45 -105 81 -196 369 -744 495 -940 16 -25 45 -72 65 -105 53 -88 81
-131 174 -267 47 -68 94 -137 106 -154 91 -134 422 -531 618 -742 161 -175
517 -517 657 -631 41 -34 111 -92 155 -129 133 -113 171 -142 349 -270 172
-124 228 -162 334 -228 31 -20 76 -49 100 -65 23 -16 45 -29 47 -29 12 0 115
-72 115 -80 0 -17 151 -12 170 5 9 8 51 19 94 25 133 17 493 112 661 175 39
15 88 33 110 40 46 15 159 61 183 75 9 5 71 32 137 61 66 28 151 69 188 90 38
22 71 39 73 39 8 0 167 91 224 128 303 197 488 336 701 529 278 251 569 594
784 924 135 207 254 431 355 664 28 66 60 138 71 160 10 22 30 78 45 125 14
47 31 96 36 110 35 86 90 275 113 385 7 33 19 85 28 115 13 46 30 147 63 378
6 37 29 43 37 9 3 -12 11 -62 17 -112 26 -216 73 -455 124 -630 15 -49 33
-113 40 -142 7 -28 30 -95 51 -150 21 -54 49 -127 62 -163 70 -188 246 -553
299 -621 6 -8 26 -41 44 -74 19 -33 48 -80 65 -105 17 -25 57 -83 90 -130 159
-233 504 -622 684 -773 47 -39 111 -94 141 -121 76 -69 197 -157 450 -331 25
-17 56 -36 70 -43 14 -7 48 -26 75 -42 28 -16 60 -33 72 -39 12 -5 52 -28 88
-51 37 -22 69 -40 71 -40 2 0 43 -18 91 -41 49 -23 117 -54 153 -71 36 -16 76
-35 90 -43 36 -18 430 -148 528 -174 298 -77 363 -91 481 -102 58 -6 126 -18
151 -26 25 -9 66 -17 91 -20 38 -4 51 -1 70 17 13 12 71 51 129 87 58 36 121
75 140 87 19 13 55 36 80 52 25 16 117 81 204 144 87 63 168 122 180 130 78
53 421 342 571 481 423 390 790 805 1099 1243 137 195 156 222 213 314 32 51
70 112 85 135 15 23 45 74 68 112 22 39 45 77 50 85 71 116 322 612 380 750
17 41 37 89 45 105 20 45 59 141 91 225 15 41 36 94 46 117 10 23 18 47 18 53
0 7 7 26 14 43 29 63 133 390 181 567 14 52 34 127 45 165 29 108 82 350 101
465 5 30 18 107 29 170 32 185 50 322 70 532 10 108 23 206 29 217 18 32 15
1095 -3 1146 -8 22 -19 112 -25 200 -7 88 -18 198 -26 245 -8 47 -17 112 -20
145 -3 33 -12 89 -20 125 -7 36 -18 101 -24 145 -6 44 -17 107 -25 140 -8 33
-26 114 -41 180 -14 66 -35 156 -46 200 -63 240 -98 363 -129 450 -10 28 -34
100 -53 160 -20 61 -45 135 -57 165 -24 60 -46 121 -83 220 -30 80 -91 223
-118 271 -10 20 -19 42 -19 49 0 13 -212 440 -261 525 -15 28 -42 75 -58 105
-49 92 -96 173 -175 299 -16 25 -39 62 -51 81 -111 178 -299 440 -497 696
-365 468 -964 1045 -1488 1431 -69 51 -136 101 -150 111 -328 245 -965 601
-1445 807 -60 26 -123 53 -140 61 -16 7 -75 30 -130 49 -55 20 -114 42 -132
50 -17 8 -36 15 -43 15 -7 0 -26 6 -43 14 -57 26 -388 132 -522 167 -44 11
-111 29 -150 40 -75 20 -259 63 -365 84 -36 7 -98 20 -138 29 -40 9 -88 16
-105 16 -18 0 -57 7 -87 15 -30 8 -100 19 -155 25 -55 7 -136 18 -181 26 -44
8 -150 19 -235 25 -223 14 -273 20 -284 30 -12 12 -858 12 -870 0z"/>
</g>
</svg>
